<?xml version="1.0" encoding="UTF-8"?>
<svg version="1.1" xmlns="http://www.w3.org/2000/svg" width="400" height="400">
<path d="M0 0 C132 0 264 0 400 0 C400 132 400 264 400 400 C268 400 136 400 0 400 C0 268 0 136 0 0 Z M108 107 C108 110.96 108 114.92 108 119 C168.39 119 228.78 119 291 119 C291 115.04 291 111.08 291 107 C230.61 107 170.22 107 108 107 Z M108 130 C108 133.96 108 137.92 108 142 C168.39 142 228.78 142 291 142 C291 138.04 291 134.08 291 130 C230.61 130 170.22 130 108 130 Z M108 153 C108 156.63 108 160.26 108 164 C128.79 164 149.58 164 171 164 C171 205.58 171 247.16 171 290 C174.63 290 178.26 290 182 290 C182 248.42 182 206.84 182 164 C185.96 164 189.92 164 194 164 C194 205.58 194 247.16 194 290 C197.63 290 201.26 290 205 290 C205 248.75 205 207.5 205 165 C208.63 165 212.26 165 216 165 C216 206.25 216 247.5 216 290 C219.96 290 223.92 290 228 290 C228 248.75 228 207.5 228 165 C248.79 165 269.58 165 291 165 C291 161.04 291 157.08 291 153 C230.61 153 170.22 153 108 153 Z M251.6875 253.3125 C247.01880664 259.29148059 245.40774134 264.53754087 246 272 C247.9134358 279.97264916 252.62300492 285.17798648 259 290 C264.14943534 292.57471767 273.09761678 291.76493534 278.59375 290.31640625 C283.25985411 288.15384646 286.07367444 285.18046508 289 281 C289.598125 280.154375 290.19625 279.30875 290.8125 278.4375 C292.88901997 272.42652113 293.32821044 265.64224817 291.12109375 259.58984375 C287.73316437 253.78675679 282.30538194 248.49045606 276 246 C266.12512588 244.87666776 258.54650828 245.88469591 251.6875 253.3125 Z " fill="#000000" transform="translate(0,0)"/>
<path d="M0 0 C60.39 0 120.78 0 183 0 C183 3.96 183 7.92 183 12 C162.21 12 141.42 12 120 12 C120 53.25 120 94.5 120 137 C116.04 137 112.08 137 108 137 C108 95.75 108 54.5 108 12 C104.37 12 100.74 12 97 12 C97 53.25 97 94.5 97 137 C93.37 137 89.74 137 86 137 C86 95.42 86 53.84 86 11 C82.04 11 78.08 11 74 11 C74 52.58 74 94.16 74 137 C70.37 137 66.74 137 63 137 C63 95.42 63 53.84 63 11 C42.21 11 21.42 11 0 11 C0 7.37 0 3.74 0 0 Z " fill="#F9F9F9" transform="translate(108,153)"/>
<path d="M0 0 C60.39 0 120.78 0 183 0 C183 3.96 183 7.92 183 12 C122.61 12 62.22 12 0 12 C0 8.04 0 4.08 0 0 Z " fill="#F4F4F4" transform="translate(108,130)"/>
<path d="M0 0 C60.39 0 120.78 0 183 0 C183 3.96 183 7.92 183 12 C122.61 12 62.22 12 0 12 C0 8.04 0 4.08 0 0 Z " fill="#F2F2F2" transform="translate(108,107)"/>
<path d="M0 0 C5.80633933 3.40758139 11.07746415 8.81408967 13.5859375 15.125 C14.51458808 22.42712616 14.26643166 28.90390477 10.21875 35.18359375 C6.7451261 39.31371595 2.71021433 42.41690772 -2.4140625 44.125 C-4.84768722 44.29741708 -7.28726846 44.39165768 -9.7265625 44.4375 C-11.02207031 44.47488281 -12.31757813 44.51226562 -13.65234375 44.55078125 C-19.43449743 43.8963111 -23.0590476 40.98953753 -26.6640625 36.5625 C-27.14359375 35.98371094 -27.623125 35.40492188 -28.1171875 34.80859375 C-31.90082075 29.89670841 -32.85963277 25.5854637 -32.75390625 19.37109375 C-31.68710478 12.32039439 -27.68895326 6.68764722 -22.2578125 2.28125 C-15.73625729 -1.80853886 -7.27222658 -2.63588795 0 0 Z " fill="#FBFBFB" transform="translate(278.4140625,246.875)"/>
</svg>
